<svg width="64" height="64" viewBox="0 0 64 64" fill="none" xmlns="http://www.w3.org/2000/svg">
  <rect x="4" y="4" width="56" height="56" rx="14" fill="#27A7E7"/>
  <path d="M47.7373 20.9123C48.2684 20.703 48.8615 21.1416 48.7878 21.7081L45.2044 46.0408C45.1466 46.4851 44.7749 46.8204 44.327 46.8327C43.8788 46.8451 43.4919 46.5307 43.4044 46.0918L40.9367 34.0212L34.8809 39.8817C34.7145 40.0417 34.4908 40.1275 34.2592 40.1202C34.0276 40.113 33.8102 40.0134 33.6541 39.8431L30.5527 36.4176L24.4797 40.7339C24.0247 41.0542 23.4044 40.8143 23.2803 40.2716L20.1875 27.6936C20.0759 27.2356 20.3258 26.7638 20.7707 26.5857L47.7373 20.9123ZM25.4255 27.9398L31.0822 35.0286L40.1771 27.6479L25.4255 27.9398Z" fill="white"/>
</svg>
